<?xml version="1.0" encoding="UTF-8"?>
<svg width="24px" height="24px" viewBox="0 0 24 24" version="1.1" xmlns="http://www.w3.org/2000/svg" xmlns:xlink="http://www.w3.org/1999/xlink">
    <!-- Generator: Sketch 54.1 (76490) - https://sketchapp.com -->
    <title>gnome</title>
    <desc>Created with Sketch.</desc>
    <g id="gnome" stroke="none" stroke-width="1" fill="none" fill-rule="evenodd">
        <path d="M18.1005547,3 C21.8453036,3 17.8663082,8.33348554 15.7600677,8.33348554 C13.6535228,8.33348554 14.3559581,3 18.1005547,3 Z M11.8827465,7.67260274 C10.7606765,7.60410959 10.0195806,3.93926941 12.1268865,3.66575342 C14.2349535,3.39223744 13.0043599,7.74109589 11.8827465,7.67260274 Z M6.74241166,10.3748858 C5.94469476,10.7258752 4.13282262,8.46270928 5.48868259,7.52587519 C6.84515138,6.5891933 7.54012855,10.0237443 6.74241166,10.3748858 Z M8.99005245,8.57716895 C8.041194,8.77108067 6.60451211,5.88599696 8.29827163,5.1870624 C9.99172673,4.48828006 9.93967193,8.38356164 8.99005245,8.57716895 Z M13.9488044,17.2942161 C13.8081651,16.2207002 17.7218637,15.570624 17.4153188,17.1929985 C17.0139489,19.3205479 14.8685913,21 13.0086217,21 C9.22779979,21 5.60435991,16.6033486 6.31257909,13.4342466 C7.35885001,8.74870624 16.5468257,7.82678843 17.050783,10.821309 C17.6579368,14.4289193 8.44697787,15.7462709 11.9153188,18.3869102 C13.0048165,19.2164384 14.1172975,18.5809741 13.9488044,17.2942161 Z" id="Shape" fill="#000000" fill-rule="nonzero"></path>
    </g>
</svg>