<?xml version="1.0" encoding="UTF-8"?>
<svg width="51px" height="51px" viewBox="0 0 51 51" version="1.1" xmlns="http://www.w3.org/2000/svg" xmlns:xlink="http://www.w3.org/1999/xlink">
    <!-- Generator: Sketch 54.1 (76490) - https://sketchapp.com -->
    <title>multipass</title>
    <desc>Created with Sketch.</desc>
    <g id="multipass" stroke="none" stroke-width="1" fill="none" fill-rule="evenodd">
        <g id="Group-2" fill-rule="nonzero">
            <path d="M25.473383,-4.26325641e-14 C39.541775,-4.26325641e-14 50.946766,11.404991 50.946766,25.473382 C50.946766,39.541774 39.541775,50.946765 25.473383,50.946765 C11.404991,50.946765 1.42108547e-14,39.541774 1.42108547e-14,25.473382 C1.42108547e-14,11.404991 11.404991,-4.26325641e-14 25.473383,-4.26325641e-14" id="Path" fill="#E95420"></path>
            <path d="M40.827394,27.616802 C40.509649,27.627893 40.193013,27.661164 39.880259,27.716617 L35.593198,19.192403 C37.259557,17.829371 37.506322,15.373364 36.143845,13.707005 C34.781368,12.040092 32.324806,11.793327 30.658448,13.156358 C28.991534,14.518835 28.744769,16.974843 30.107801,18.641201 L30.109464,18.643974 C30.24976,18.834177 30.418337,19.002199 30.607985,19.142495 L26.320925,27.66671 C25.732015,27.516987 25.115379,27.516987 24.52647,27.66671 L20.289316,19.192403 C21.956229,17.829371 22.20244,15.373364 20.839963,13.707005 C19.476932,12.040092 17.020925,11.793327 15.354011,13.156358 C13.687653,14.518835 13.440888,16.974843 14.803364,18.641201 C14.804473,18.64231 14.805028,18.642865 14.805583,18.643974 C14.975823,18.838613 15.158817,19.022162 15.354011,19.192403 L11.017043,27.716617 C10.693753,27.617911 10.358263,27.568004 10.02,27.566894 C7.859002,27.553031 6.095601,29.294251 6.08221,31.455249 C6.068429,33.616247 7.809095,35.379649 9.970093,35.39304 C12.131645,35.406821 13.894492,33.666155 13.908355,31.505157 C13.911128,30.350074 13.399298,29.253771 12.512607,28.514029 L16.849575,19.939907 C17.161775,20.000351 17.478965,20.033623 17.79671,20.039723 C18.098374,20.03085 18.398374,19.997578 18.693937,19.939907 L22.931645,28.414214 C21.264732,29.777246 21.017412,32.232699 22.380444,33.899612 C23.742921,35.566525 26.198928,35.81329 27.865841,34.450259 C29.532754,33.087782 29.778965,30.631774 28.416488,28.964861 C28.415934,28.964307 28.415379,28.963752 28.41427,28.962643 C28.257339,28.755804 28.073235,28.5717 27.866396,28.414214 L32.158448,19.89 C32.466766,19.972625 32.786729,20.005896 33.105583,19.989815 C33.406692,19.980943 33.706692,19.947671 34.00281,19.89 L38.289871,28.364861 C36.63793,29.741201 36.41501,32.1961 37.79135,33.84804 C39.168244,35.499427 41.623143,35.722902 43.274529,34.346007 C44.92647,32.969667 45.149945,30.514769 43.77305,28.863382 C43.000592,28.06597 41.93756,27.616247 40.827394,27.616802" id="Path" fill="#FFFFFF"></path>
        </g>
    </g>
</svg>